<svg width="13" height="14" viewBox="0 0 13 14" fill="none" xmlns="http://www.w3.org/2000/svg">
<path d="M5.17175 12.3767C5.17164 12.2891 5.13277 12.2061 5.06559 12.1499C4.99786 12.0946 4.90948 12.0712 4.82326 12.0859C3.88338 12.2601 2.69137 12.2624 2.34519 11.2903C2.13225 10.7706 1.79101 10.3135 1.35338 9.9615C1.2628 9.91506 1.18116 9.85296 1.11221 9.77806C1.08891 9.63573 0.966199 9.53108 0.821993 9.53051H0.820803C0.658134 9.53051 0.526045 9.66206 0.525396 9.82476C0.523665 10.1617 0.945428 10.4138 1.07005 10.4802C1.3832 10.7615 1.62975 11.109 1.79187 11.4974C1.99785 12.0761 2.62559 12.9716 4.58209 12.7217C4.58382 12.937 4.5867 13.0483 4.58901 13.1331L4.5919 13.3074C4.5919 13.4705 4.72417 13.6028 4.8873 13.6028C5.05044 13.6028 5.18271 13.4705 5.18271 13.3074L5.17983 13.1169C5.17636 12.9981 5.17175 12.8268 5.17175 12.3767ZM11.8288 3.1354C11.8109 3.1129 11.7919 3.08925 11.7723 3.06559C11.8119 2.94071 11.8431 2.81331 11.8657 2.68425C11.9572 2.0502 11.8761 1.40321 11.6309 0.811346C11.5986 0.730029 11.5318 0.667248 11.4486 0.640023C11.3649 0.612328 10.6016 0.406928 9.00858 1.45643C7.67395 1.11717 6.27563 1.11717 4.94096 1.45643C3.34853 0.419044 2.58982 0.613482 2.50558 0.638292C2.4208 0.665048 2.35243 0.728335 2.31922 0.810805C2.06958 1.41161 1.98898 2.06921 2.08613 2.71249C2.10874 2.83044 2.13744 2.94713 2.1721 3.06213C2.15133 3.08755 2.13171 3.1129 2.11325 3.13771C1.61309 3.77227 1.34696 4.55986 1.35973 5.36773C1.35828 5.55095 1.36676 5.7341 1.38511 5.91642C1.5859 8.67202 3.36353 9.43881 4.89888 9.70075C4.79888 9.88001 4.72413 10.0722 4.67671 10.2719C4.63784 10.4303 4.7347 10.5902 4.89307 10.6291C5.05145 10.668 5.21134 10.5711 5.25022 10.4127C5.30488 10.1412 5.44209 9.8931 5.64309 9.70248C5.76602 9.59495 5.77854 9.40812 5.671 9.28519C5.62254 9.22984 5.55521 9.1945 5.48212 9.18609C3.85338 9.00146 2.16286 8.46315 1.97358 5.86276C1.95689 5.69829 1.94921 5.53303 1.95054 5.36773C1.9394 4.68961 2.16276 4.02844 2.5829 3.49601C2.62732 3.436 2.67694 3.38119 2.72598 3.32696C2.80088 3.24431 2.82299 3.12653 2.7831 3.02232C2.73269 2.88908 2.69425 2.75161 2.66829 2.61152C2.59754 2.13657 2.6447 1.65152 2.80561 1.1991C3.50723 1.29679 4.16984 1.5807 4.72456 2.02128C4.79618 2.0696 4.88546 2.08395 4.96862 2.06052C6.28284 1.70395 7.66836 1.70395 8.98258 2.06052C9.0662 2.08388 9.15585 2.06931 9.22775 2.0207C9.77858 1.57557 10.4409 1.28998 11.1427 1.19506C11.3018 1.64066 11.3499 2.11832 11.2829 2.58671C11.2568 2.73557 11.2161 2.8815 11.1612 3.02232C11.1213 3.12653 11.1434 3.24427 11.2183 3.32696C11.2703 3.38408 11.3222 3.44812 11.3677 3.50524C11.7889 4.03356 12.0125 4.69221 12.0002 5.36773C12.0015 5.53671 11.9932 5.70565 11.9753 5.87373C11.7878 8.462 10.091 9.00031 8.45584 9.18609C8.29361 9.2047 8.17717 9.35136 8.19581 9.51363C8.20421 9.58669 8.23952 9.65401 8.29487 9.70244C8.49854 9.89443 8.63492 10.1469 8.68378 10.4225C8.73412 10.6171 8.7576 10.8176 8.75356 11.0185V12.4713C8.74725 12.8706 8.74725 13.1701 8.74725 13.3073C8.74747 13.4705 8.87992 13.6026 9.04305 13.6023C9.20587 13.6021 9.33781 13.4701 9.33806 13.3073C9.33806 13.1712 9.33806 12.8752 9.34437 12.4759V11.0185C9.34903 10.7683 9.31931 10.5187 9.25613 10.2765C9.21167 10.0752 9.13865 9.8813 9.03919 9.70071C10.5803 9.43935 12.3648 8.67313 12.5639 5.9285C12.5834 5.74221 12.5925 5.55499 12.591 5.36769C12.6045 4.55756 12.3349 3.76812 11.8288 3.1354Z" fill="white"/>
</svg>
