<svg width="15" height="15" viewBox="0 0 15 15" fill="none" xmlns="http://www.w3.org/2000/svg">
<g clip-path="url(#clip0_297_142)">
<path d="M12.4086 12.1227C12.2863 12.1227 12.1871 12.0234 12.1871 11.9011V6.1407C12.1871 6.0184 12.2863 5.91914 12.4086 5.91914C12.5309 5.91914 12.6302 6.0184 12.6302 6.1407V11.9011C12.6302 12.0234 12.5309 12.1227 12.4086 12.1227ZM2.66019 12.1227C2.53789 12.1227 2.43863 12.0234 2.43863 11.9011V6.1407C2.43863 6.0184 2.53789 5.91914 2.66019 5.91914C2.78249 5.91914 2.88174 6.0184 2.88174 6.1407V11.9011C2.88174 12.0234 2.78249 12.1227 2.66019 12.1227ZM7.53441 6.55368C7.49054 6.55368 7.44711 6.54083 7.40945 6.51513L2.01901 2.82667C1.91798 2.75755 1.89228 2.61974 1.9614 2.51871C2.03053 2.41768 2.16789 2.39154 2.26936 2.46111L7.53441 6.0636L11.5038 3.34777C11.6053 3.27865 11.7431 3.30479 11.8118 3.40538C11.8809 3.50641 11.8552 3.64421 11.7541 3.71334L7.65981 6.51468C7.6217 6.54083 7.57827 6.55368 7.53441 6.55368Z" fill="white"/>
<path d="M13.0734 12.1227H1.99559C1.38499 12.1227 0.887817 11.6255 0.887817 11.0149V3.48204C0.887817 3.35975 0.987074 3.26049 1.10937 3.26049C1.23167 3.26049 1.33093 3.35975 1.33093 3.48204V11.0149C1.33093 11.3814 1.62914 11.6796 1.99559 11.6796H13.0734C13.4398 11.6796 13.738 11.3814 13.738 11.0149V3.48204C13.738 3.11559 13.4398 2.81738 13.0734 2.81738C12.9511 2.81738 12.8518 2.71812 12.8518 2.59582C12.8518 2.47352 12.9511 2.37427 13.0734 2.37427C13.684 2.37427 14.1811 2.87144 14.1811 3.48204V11.0149C14.1811 11.6255 13.684 12.1227 13.0734 12.1227Z" fill="white"/>
<path d="M7.53448 8.57782C7.49061 8.57782 7.44674 8.56497 7.40863 8.53882L1.36017 4.36738C1.06418 4.16355 0.887817 3.82678 0.887817 3.46742C0.887817 2.86479 1.37834 2.37427 1.98097 2.37427H13.0875C13.6906 2.37427 14.1811 2.86479 14.1811 3.46742C14.1811 3.82678 14.0048 4.16311 13.7088 4.36738L7.66032 8.53882C7.62221 8.56497 7.57835 8.57782 7.53448 8.57782ZM1.98097 2.81738C1.62249 2.81738 1.33093 3.10895 1.33093 3.46742C1.33093 3.68144 1.43595 3.88129 1.61186 4.0027L7.53448 8.08729L13.4571 4.0027C13.633 3.88129 13.738 3.68144 13.738 3.46742C13.738 3.10895 13.4465 2.81738 13.088 2.81738H1.98097Z" fill="white"/>
</g>
<defs>
<clipPath id="clip0_297_142">
<rect width="14.1795" height="14.1795" fill="white" transform="translate(0.44458 0.158691)"/>
</clipPath>
</defs>
</svg>
