<svg width="15" height="13" viewBox="0 0 15 13" fill="none" xmlns="http://www.w3.org/2000/svg">
<path d="M2.62856 4.09125H2.6095C1.59788 4.09125 0.863647 3.42038 0.863647 2.49605C0.863647 1.57039 1.61339 0.898193 2.64628 0.898193C3.66189 0.898193 4.38682 1.55222 4.40853 2.48852C4.40853 3.41949 3.66012 4.09125 2.62856 4.09125ZM2.64628 1.3413C1.85754 1.3413 1.30676 1.81632 1.30676 2.49605C1.30676 3.17445 1.84248 3.64858 2.6095 3.64858H2.62856C3.41596 3.64814 3.96542 3.17357 3.96542 2.49383C3.94903 1.79549 3.43147 1.3413 2.64628 1.3413ZM3.74387 13.0089H1.52831C1.40601 13.0089 1.30676 12.9096 1.30676 12.7873V4.8113C1.30676 4.68901 1.40601 4.58975 1.52831 4.58975H3.74387C3.86617 4.58975 3.96542 4.68901 3.96542 4.8113V12.7873C3.96542 12.9096 3.86617 13.0089 3.74387 13.0089ZM1.74987 12.5657H3.52231V5.03286H1.74987V12.5657ZM13.9354 13.0089H11.2767C11.1544 13.0089 11.0552 12.9096 11.0552 12.7873V8.57774C11.0552 7.84484 10.4588 7.24841 9.72586 7.24841C8.99296 7.24841 8.39653 7.84484 8.39653 8.57774V12.7873C8.39653 12.9096 8.29727 13.0089 8.17497 13.0089H5.51631C5.39401 13.0089 5.29475 12.9096 5.29475 12.7873V4.8113C5.29475 4.68901 5.39401 4.58975 5.51631 4.58975H8.17497C8.29727 4.58975 8.39653 4.68901 8.39653 4.8113V6.14684C8.39653 6.26914 8.29727 6.3684 8.17497 6.3684C8.05268 6.3684 7.95342 6.26914 7.95342 6.14684V5.03286H5.73786V12.5657H7.95342V8.57774C7.95342 7.60024 8.74836 6.8053 9.72586 6.8053C10.7034 6.8053 11.4983 7.60024 11.4983 8.57774V12.5657H13.7139V7.91308C13.7139 6.32497 12.4217 5.03286 10.8336 5.03286C10.2204 5.03286 9.62749 5.21276 9.11836 5.55263C9.01688 5.61998 8.87908 5.59339 8.81128 5.49148C8.74348 5.38956 8.77051 5.2522 8.87287 5.1844C9.45468 4.79535 10.1326 4.58975 10.8336 4.58975C12.6663 4.58975 14.157 6.08037 14.157 7.91308V12.7873C14.157 12.9096 14.0577 13.0089 13.9354 13.0089Z" fill="white"/>
</svg>
