<svg width="15" height="12" viewBox="0 0 15 12" fill="none" xmlns="http://www.w3.org/2000/svg">
<path d="M11.3359 11.5242C11.1578 11.5242 10.9624 11.4657 10.751 11.3492L5.96409 7.81495C5.91048 7.77552 5.87769 7.71392 5.87414 7.64746C5.87104 7.58099 5.89763 7.51674 5.94726 7.47199L11.6173 2.36957C11.7081 2.28759 11.8482 2.29468 11.9301 2.38596C12.0121 2.4768 12.0046 2.61682 11.9137 2.6988L6.44576 7.61999L10.9894 10.977C11.1095 11.0412 11.3124 11.1228 11.4569 11.0559C11.604 10.9885 11.6767 10.7736 11.7121 10.6052L13.6507 1.46961C13.7261 1.16785 13.6897 0.925027 13.5555 0.813363C13.4531 0.728286 13.3007 0.722082 13.1358 0.796525L1.74081 5.1913C1.39119 5.33176 1.2813 5.47622 1.28307 5.52407C1.2844 5.55553 1.35973 5.64238 1.58439 5.71107L4.40922 6.59286L7.51055 4.63608C7.61424 4.57138 7.75072 4.60196 7.81585 4.7052C7.88099 4.80845 7.85042 4.94537 7.74673 5.01051L4.55899 7.02179C4.50404 7.05635 4.43625 7.06521 4.37466 7.04616L1.45367 6.13424C0.935231 5.9756 0.846609 5.69556 0.840406 5.54268C0.831543 5.33309 0.952513 5.03 1.57907 4.7792L12.9648 0.388863C13.2736 0.247954 13.6051 0.278085 13.8395 0.473497C14.1111 0.699926 14.1997 1.09961 14.0828 1.56975L12.1459 10.6969C12.0644 11.086 11.8951 11.3426 11.6421 11.4587C11.5468 11.5025 11.4449 11.5242 11.3359 11.5242Z" fill="white"/>
</svg>
