<svg width="15" height="15" viewBox="0 0 15 15" fill="none" xmlns="http://www.w3.org/2000/svg">
<g clip-path="url(#clip0_297_154)">
<path d="M7.46472 13.8951C6.19388 13.8951 4.96291 13.5358 3.89768 12.8551L1.52792 13.6124C1.4486 13.6377 1.36131 13.6164 1.30238 13.557C1.24389 13.4977 1.2235 13.4099 1.25053 13.331L2.0149 11.0508C1.23059 9.93416 0.816284 8.62211 0.816284 7.24847C0.816284 5.44235 1.53058 3.75188 2.82756 2.48857C2.91486 2.40349 3.05532 2.40527 3.14084 2.49256C3.22592 2.5803 3.22415 2.72076 3.13641 2.80584C1.92628 3.9854 1.25939 5.56287 1.25939 7.24847C1.25939 8.56628 1.66794 9.82338 2.44028 10.8837C2.48238 10.9418 2.4939 11.0167 2.47086 11.0849L1.80974 13.0576L3.86267 12.4014C3.92648 12.3806 3.99649 12.3908 4.05276 12.4275C5.06527 13.0975 6.24528 13.452 7.46472 13.452C10.8846 13.452 13.6665 10.6693 13.6665 7.24847C13.6665 3.8281 10.8846 1.04492 7.46472 1.04492H7.46339C6.50317 1.04492 5.58548 1.25805 4.73205 1.67812C4.62216 1.73174 4.48967 1.68698 4.43561 1.57754C4.38155 1.46809 4.42631 1.33471 4.53664 1.28065C5.45122 0.830452 6.43581 0.601807 7.46117 0.601807C11.1284 0.601807 14.1096 3.5835 14.1096 7.24847C14.1096 10.9134 11.1284 13.8951 7.46472 13.8951Z" fill="white"/>
<path d="M9.50223 11.0118C9.05425 11.0118 8.42902 10.839 7.53527 10.4685C6.36856 9.98554 5.21204 8.97348 4.2784 7.61977L4.24517 7.57236C3.93676 7.15096 3.43738 6.34361 3.43738 5.50082C3.43738 4.51312 3.93145 4.01197 4.14281 3.79794C4.34177 3.59367 4.63909 3.48511 4.9732 3.48511C5.05739 3.48511 5.13272 3.4891 5.2014 3.49308C5.48278 3.50416 5.64584 3.57506 5.80093 3.94594L5.96178 4.33588C6.13193 4.74842 6.34153 5.25755 6.37432 5.32623C6.41065 5.40112 6.52099 5.63109 6.39824 5.87037C6.33266 6.0104 6.26841 6.08439 6.18023 6.18631C6.1182 6.25765 6.07699 6.30196 6.03489 6.34627C5.98615 6.39856 5.93652 6.44996 5.88689 6.51244C5.80137 6.61258 5.80137 6.61258 5.83018 6.66265C5.99413 6.9396 6.34285 7.47133 6.8285 7.90336C7.45861 8.4639 7.96774 8.66995 8.21234 8.7692L8.27304 8.79402C8.3373 8.8206 8.41839 8.83966 8.47909 8.77541C8.58898 8.6571 8.72812 8.46257 8.87523 8.25652L8.96341 8.1329C9.11806 7.91444 9.3086 7.86836 9.44109 7.86836C9.51863 7.86836 9.59928 7.88387 9.68169 7.91489C9.88774 7.98667 10.972 8.52682 10.9831 8.53214L11.0872 8.5831C11.2423 8.65754 11.3646 8.71647 11.4346 8.83966C11.5361 9.01602 11.4962 9.47862 11.342 9.91509C11.1573 10.4375 10.4704 10.8456 9.91832 10.9644C9.80842 10.9874 9.67771 11.0118 9.50223 11.0118ZM4.97276 3.92822C4.76361 3.92822 4.57307 3.99114 4.4747 4.09173C4.27043 4.2991 3.88005 4.6948 3.88005 5.50082C3.88005 6.02413 4.13927 6.67861 4.59124 7.29586L4.64264 7.36897C5.52797 8.65311 6.61537 9.6089 7.70409 10.0595C8.5429 10.4074 9.11407 10.5691 9.50179 10.5691C9.63472 10.5691 9.73354 10.5505 9.82393 10.5315C10.2551 10.4384 10.7979 10.1198 10.9224 9.76753C11.0571 9.38778 11.0545 9.09578 11.0385 9.03773C11.0376 9.05146 10.9579 9.0138 10.8936 8.98278L10.7833 8.92872C10.4726 8.77319 9.66973 8.38104 9.52926 8.33185C9.49204 8.31767 9.46368 8.31191 9.43976 8.31191C9.41982 8.31191 9.37861 8.31191 9.32277 8.39079L9.23415 8.51486C9.07862 8.73287 8.93195 8.93847 8.80168 9.07849C8.63462 9.25707 8.34793 9.3067 8.10112 9.20389L8.04484 9.18085C7.79803 9.08115 7.21977 8.84719 6.53251 8.2357C6.00255 7.76334 5.62457 7.18863 5.44644 6.88775C5.25901 6.56473 5.4491 6.34229 5.54038 6.2355C5.59843 6.16327 5.65515 6.10345 5.71187 6.04319C5.74909 6.00375 5.78631 5.96431 5.82442 5.92C5.92412 5.80523 5.95691 5.76713 5.99989 5.6754C6.01274 5.65015 6.01983 5.61425 5.97374 5.51854C5.94007 5.44764 5.72472 4.92743 5.55146 4.50559L5.39105 4.11698C5.31794 3.94151 5.31794 3.94151 5.1788 3.93619C5.115 3.93176 5.04764 3.92822 4.97276 3.92822Z" fill="white"/>
<path d="M3.69653 2.15271C3.81889 2.15271 3.91809 2.05351 3.91809 1.93115C3.91809 1.80879 3.81889 1.70959 3.69653 1.70959C3.57417 1.70959 3.47498 1.80879 3.47498 1.93115C3.47498 2.05351 3.57417 2.15271 3.69653 2.15271Z" fill="white"/>
</g>
<defs>
<clipPath id="clip0_297_154">
<rect width="14.1795" height="14.1795" fill="white" transform="translate(0.373169 0.158691)"/>
</clipPath>
</defs>
</svg>
